<svg xmlns="http://www.w3.org/2000/svg" viewBox="0 0 704.91 120"><defs><style>.cls-1{fill:#e24747;}</style></defs><title>Domain-Primary</title><g id="Layer_2" data-name="Layer 2"><g id="Primary"><g id="Domain-Primary"><path d="M204.44,60a31.53,31.53,0,0,1-2.24,12,28.27,28.27,0,0,1-6.32,9.52,28.88,28.88,0,0,1-9.83,6.26A34.84,34.84,0,0,1,173.31,90H150V30h23.31a34.43,34.43,0,0,1,12.74,2.27,29,29,0,0,1,9.83,6.25A28.08,28.08,0,0,1,202.2,48,31.44,31.44,0,0,1,204.44,60Zm-14.25,0A26.09,26.09,0,0,0,189,52a17,17,0,0,0-3.32-6.07,14.22,14.22,0,0,0-5.29-3.83,17.8,17.8,0,0,0-7.12-1.34H164V79.29h9.31A17.8,17.8,0,0,0,180.43,78a14.22,14.22,0,0,0,5.29-3.83A17,17,0,0,0,189,68.05,26.26,26.26,0,0,0,190.19,60Z"/><path d="M271.45,60a31.5,31.5,0,0,1-2.2,11.85A27.93,27.93,0,0,1,253.46,87.7a35,35,0,0,1-25,0,28,28,0,0,1-15.85-15.87,33,33,0,0,1,0-23.7,28.22,28.22,0,0,1,6.2-9.51,28.73,28.73,0,0,1,9.65-6.32A32.87,32.87,0,0,1,241,30a32.37,32.37,0,0,1,12.48,2.32,28.85,28.85,0,0,1,9.61,6.34,28.32,28.32,0,0,1,6.18,9.51A31.36,31.36,0,0,1,271.45,60Zm-13.94,0a25.5,25.5,0,0,0-1.13-7.84,16.74,16.74,0,0,0-3.25-5.9A14,14,0,0,0,248,42.53a17.87,17.87,0,0,0-7-1.29,18.09,18.09,0,0,0-7,1.29,14.11,14.11,0,0,0-5.2,3.71,16.57,16.57,0,0,0-3.24,5.9A25.5,25.5,0,0,0,224.38,60a25.63,25.63,0,0,0,1.13,7.88,16.57,16.57,0,0,0,3.24,5.9,14,14,0,0,0,5.2,3.69,18.47,18.47,0,0,0,7,1.27,18.25,18.25,0,0,0,7-1.27,13.84,13.84,0,0,0,5.17-3.69,16.74,16.74,0,0,0,3.25-5.9A25.63,25.63,0,0,0,257.51,60Z"/><path d="M344.9,30V90H332.63V55.49c0-.8,0-1.66.06-2.59s.12-1.88.23-2.85L317,80.9a5.17,5.17,0,0,1-2,2.18,5.44,5.44,0,0,1-2.86.74h-1.89a5.44,5.44,0,0,1-2.86-.74,5.17,5.17,0,0,1-2-2.18L289.43,50q.12,1.48.21,2.91c.05.94.08,1.81.08,2.61V90H277.45V30h10.62c.61,0,1.13,0,1.59,0a4,4,0,0,1,1.21.25,2.78,2.78,0,0,1,1,.64,4.71,4.71,0,0,1,.84,1.21l15.45,30.43c.55,1,1.07,2.13,1.58,3.26s1,2.28,1.46,3.46c.47-1.21,1-2.39,1.47-3.55s1.05-2.25,1.62-3.29l15.4-30.31a5,5,0,0,1,.85-1.21,2.78,2.78,0,0,1,1-.64,4,4,0,0,1,1.21-.25c.45,0,1,0,1.59,0Z"/><path d="M412.6,90H401.81a4.71,4.71,0,0,1-2.92-.84A5.4,5.4,0,0,1,397.2,87l-3.54-10.46H370.84L367.3,87a4.94,4.94,0,0,1-1.62,2.08,4.55,4.55,0,0,1-2.91.93H351.9l23.23-60h14.25ZM390.49,67.06l-5.56-16.43c-.41-1-.85-2.27-1.32-3.68s-.93-3-1.4-4.6c-.41,1.68-.85,3.23-1.32,4.66s-.9,2.66-1.32,3.7l-5.51,16.35Z"/><path d="M433.6,90h-14V30h14Z"/><path d="M495,30V90h-7.24a6.38,6.38,0,0,1-2.7-.51,6.55,6.55,0,0,1-2.16-1.8L454.59,51.91c.11,1.07.18,2.11.22,3.11s.06,1.94.06,2.82V90H442.6V30h7.33a12.85,12.85,0,0,1,1.53.08,4.11,4.11,0,0,1,1.11.31,4,4,0,0,1,.95.64,10.81,10.81,0,0,1,1,1.11l28.53,36c-.13-1.15-.23-2.27-.28-3.35s-.09-2.11-.09-3.07V30Z"/><path d="M505,82.5a7.22,7.22,0,0,1,.6-2.94,7.46,7.46,0,0,1,1.62-2.37A7.74,7.74,0,0,1,512.7,75a7.79,7.79,0,0,1,3,.59,8.23,8.23,0,0,1,2.46,1.6,7.36,7.36,0,0,1,1.64,2.37,7.22,7.22,0,0,1,.59,2.94,7.35,7.35,0,0,1-.59,3,7.13,7.13,0,0,1-1.64,2.39,7.8,7.8,0,0,1-2.46,1.58,8,8,0,0,1-3,.57,8.1,8.1,0,0,1-3.07-.57,7.56,7.56,0,0,1-2.43-1.58,7.22,7.22,0,0,1-1.62-2.39A7.35,7.35,0,0,1,505,82.5Z"/><path d="M571.23,77.22a1.54,1.54,0,0,1,1.15.53l3.15,3.4a25.13,25.13,0,0,1-8.74,6.52A30.07,30.07,0,0,1,554.36,90a29.06,29.06,0,0,1-11.47-2.19,25.29,25.29,0,0,1-8.81-6.14,27.85,27.85,0,0,1-5.65-9.49,35.33,35.33,0,0,1-2-12.16,34.19,34.19,0,0,1,2.09-12.16,27.61,27.61,0,0,1,5.88-9.5,26.23,26.23,0,0,1,9.07-6.17A30.18,30.18,0,0,1,555.13,30a28.38,28.38,0,0,1,11.06,2,27.87,27.87,0,0,1,8.44,5.44L572,41.1a2.16,2.16,0,0,1-.64.67,1.8,1.8,0,0,1-1,.27,3.27,3.27,0,0,1-1.8-.8,28.47,28.47,0,0,0-2.79-1.78,20.75,20.75,0,0,0-10.65-2.58,21.33,21.33,0,0,0-8.31,1.58A18.12,18.12,0,0,0,540.29,43a21.13,21.13,0,0,0-4.24,7.29A29.14,29.14,0,0,0,534.53,60a28.36,28.36,0,0,0,1.58,9.79,21.5,21.5,0,0,0,4.3,7.27,18.11,18.11,0,0,0,6.43,4.52,20.43,20.43,0,0,0,8,1.56,32.37,32.37,0,0,0,4.73-.31,18.93,18.93,0,0,0,3.89-1,16.61,16.61,0,0,0,3.32-1.66,24.68,24.68,0,0,0,3.05-2.39A2.1,2.1,0,0,1,571.23,77.22Z"/><path d="M636.48,60a34,34,0,0,1-2.09,12.11,27.52,27.52,0,0,1-5.91,9.49,26.31,26.31,0,0,1-9.16,6.17,33,33,0,0,1-23.65,0,26.42,26.42,0,0,1-9.14-6.17,27.67,27.67,0,0,1-5.91-9.49A34,34,0,0,1,578.53,60a34,34,0,0,1,2.09-12.11,28,28,0,0,1,5.91-9.51,26.65,26.65,0,0,1,9.14-6.21,32.74,32.74,0,0,1,23.65,0,26.55,26.55,0,0,1,9.16,6.21,27.9,27.9,0,0,1,5.91,9.51A34,34,0,0,1,636.48,60Zm-8.16,0a29.64,29.64,0,0,0-1.48-9.71,20.4,20.4,0,0,0-4.18-7.28,18.17,18.17,0,0,0-6.56-4.57,24,24,0,0,0-17.19,0,18.42,18.42,0,0,0-6.58,4.57,20.29,20.29,0,0,0-4.2,7.28A29.64,29.64,0,0,0,586.65,60a29.44,29.44,0,0,0,1.48,9.69,20.28,20.28,0,0,0,4.2,7.26,18.13,18.13,0,0,0,6.58,4.55,24.31,24.31,0,0,0,17.19,0A17.88,17.88,0,0,0,622.66,77a20.39,20.39,0,0,0,4.18-7.26A29.44,29.44,0,0,0,628.32,60Z"/><path d="M704.91,30V90h-7.12V45.91c0-.59,0-1.21.06-1.88s.09-1.36.15-2.05L677.4,79.49a3.11,3.11,0,0,1-2.93,1.88H673.3a3.11,3.11,0,0,1-2.93-1.88l-21-37.68a36,36,0,0,1,.25,4.1V90h-7.12V30h6a5.18,5.18,0,0,1,1.67.21,2.4,2.4,0,0,1,1.13,1.17L672,68.31c.33.67.66,1.37,1,2.09s.62,1.47.9,2.22c.28-.75.58-1.5.88-2.24a21.64,21.64,0,0,1,1-2.11l20.35-36.89a2.19,2.19,0,0,1,1.11-1.17,5.36,5.36,0,0,1,1.69-.21Z"/><path class="cls-1" d="M41.24,90l.16-60H62.49c16.33,0,26.08,10.42,25.74,30.5C87.9,79.7,77.73,90,62.4,90ZM61.11,76.23c4.81-.37,10.85-2.39,10.85-16S64.89,43.73,61,43.63c-.47,0-3,0-3.5.1v32.5Z"/><path class="cls-1" d="M88.36,93.12a44.4,44.4,0,1,1,.24-.21h21.56a59.93,59.93,0,1,0-21.8,20Z"/><path class="cls-1" d="M110.23,106.34a8.2,8.2,0,1,1-8.19-8.2,8.19,8.19,0,0,1,8.19,8.2"/></g></g></g></svg>