<svg xmlns="http://www.w3.org/2000/svg" viewBox="89.97 43.06 1004.32 210.09"><path fill="#111" d="M293.492 52.666c-24.522-15.323-56.804-11.682-85.55 6.42-28.743-18.096-61.016-21.74-85.536-6.42-38.74 24.208-43.445 86.562-10.508 139.271 24.285 38.865 62.253 61.63 96.053 61.206 33.8.422 71.766-22.342 96.05-61.206 32.937-52.71 28.232-115.063-10.509-139.27ZM129.704 180.81a126.428 126.428 0 0 1-15.2-34.806 99.65 99.65 0 0 1-3.293-32.81c1.47-19.473 9.397-34.644 22.323-42.721s30.037-8.551 48.182-1.336a87.826 87.826 0 0 1 8.111 3.744 148.644 148.644 0 0 0-26.117 31.392c-20.017 32.034-26.105 67.615-19.126 96.045a130.085 130.085 0 0 1-14.88-19.508Zm171.691-34.806a126.428 126.428 0 0 1-15.2 34.806 130.087 130.087 0 0 1-14.877 19.505c6.243-25.45 2.017-56.627-13.3-85.864a3.859 3.859 0 0 0-5.534-1.507l-47.7 29.806a3.9 3.9 0 0 0-1.24 5.374l6.993 11.192a3.9 3.9 0 0 0 5.374 1.24l30.915-19.318a119.292 119.292 0 0 1 2.757 8.968 99.653 99.653 0 0 1 3.293 32.811c-1.47 19.472-9.397 34.644-22.323 42.72a43.562 43.562 0 0 1-22.106 6.4c-.177 0-.357.005-.534.002-.152.002-.306-.003-.458-.001a43.561 43.561 0 0 1-22.11-6.401c-12.925-8.077-20.853-23.249-22.322-42.72a99.65 99.65 0 0 1 3.293-32.811 129.87 129.87 0 0 1 39.82-63.727 99.656 99.656 0 0 1 28.047-17.343c18.145-7.215 35.257-6.74 48.182 1.336s20.853 23.249 22.322 42.72a99.653 99.653 0 0 1-3.292 32.812ZM547.539 122.627c25.251 0 45.52 19.581 45.52 44.488 0 24.735-20.269 43.973-45.52 43.973-25.079 0-45.348-19.238-45.348-43.973 0-24.907 20.269-44.488 45.348-44.488m0 65.226c11.732 0 20.53-9.35 20.53-20.91s-8.798-21.08-20.53-21.08c-11.56 0-20.358 9.52-20.358 21.08s8.798 20.91 20.358 20.91M712.2 148.392c0 35.728-25.661 60.293-62.592 60.293h-46.142a3.748 3.748 0 0 1-3.778-3.952V92.223a3.703 3.703 0 0 1 3.778-3.78h46.142c36.93 0 62.592 24.05 62.592 59.949m-26.97 0c0-20.956-14.085-36.244-34.526-36.244h-25.25v72.831h25.25c20.442 0 34.526-15.974 34.526-36.587m73.831-25.765c11.167 0 20.097 4.81 24.048 11.337v-5.153a3.91 3.91 0 0 1 3.609-3.78h17.348a3.669 3.669 0 0 1 3.607 3.78v76.267a3.522 3.522 0 0 1-3.607 3.607h-17.348a3.63 3.63 0 0 1-3.61-3.607v-5.326c-3.95 6.528-13.053 11.336-24.218 11.336-21.643 0-41.741-17.348-41.741-44.316 0-27.14 20.27-44.145 41.912-44.145m4.643 65.396c11.498 0 20.12-8.826 20.12-21.08s-8.622-21.078-20.12-21.078c-11.496 0-20.12 8.826-20.12 21.079s8.624 21.08 20.12 21.08m92.234-65.397c11.336 0 20.44 4.81 24.39 10.994V92.05a3.667 3.667 0 0 1 3.778-3.607h17.35a3.521 3.521 0 0 1 3.608 3.607v113.027a3.521 3.521 0 0 1-3.607 3.606h-17.35a3.627 3.627 0 0 1-3.606-3.606v-5.325c-4.64 6.528-13.056 11.336-24.22 11.336-21.645 0-41.741-17.349-41.741-44.317 0-27.14 19.925-44.145 41.398-44.145m5.159 65.616c11.445 0 20.03-8.918 20.03-21.3s-8.585-21.3-20.03-21.3c-11.449 0-20.033 8.92-20.033 21.3s8.584 21.3 20.033 21.3m92.233-65.616c11.336 0 20.44 4.81 24.391 10.994V92.05a3.667 3.667 0 0 1 3.779-3.607h17.35a3.522 3.522 0 0 1 3.607 3.607v113.027a3.522 3.522 0 0 1-3.607 3.606H981.5a3.627 3.627 0 0 1-3.607-3.606v-5.325c-4.638 6.528-13.055 11.336-24.22 11.336-21.644 0-41.74-17.349-41.74-44.317 0-27.14 19.925-44.145 41.398-44.145m5.158 65.616c11.445 0 20.03-8.918 20.03-21.3s-8.584-21.3-20.03-21.3c-11.448 0-20.032 8.92-20.032 21.3s8.584 21.3 20.032 21.3m132.06-63.212h-17.309c-2.748 0-4.122 1.89-4.636 3.952l-15.98 59.747-17.11-59.748c-.985-3.183-2.54-3.95-4.773-3.95h-18.247c-4.293 0-5.084 2.92-4.225 5.84l23.154 74.206c.687 2.061 2.061 3.606 4.638 3.606h10.484l-2.225 7.367c-2.193 6.364-6.279 8.077-11.614 8.077-4.571 0-7.571-1.804-10.806-3.896a5.94 5.94 0 0 0-3.417-1.184c-1.555 0-2.63.7-4.081 2.843l-5.139 7.7c-1.004 1.595-1.545 2.473-1.545 4.176 0 2.734 2.73 4.446 6.003 6.316 5.632 3.22 12.815 4.827 20.702 4.827 17.349 0 28.515-9.446 33.496-25.246l25.894-88.791c1.202-3.436.172-5.842-3.264-5.842Zm-617.056 67.242c-9.093 11.486-24.901 18.71-42.78 18.71-33.577 0-59.824-25.254-59.824-61.216 0-37.376 28.33-63.136 64.121-63.136 26.419 0 47.547 11.363 56.92 34.213a5.186 5.186 0 0 1 .434 1.905c0 1.087-.712 1.903-2.99 2.697l-16.73 6.442a4.331 4.331 0 0 1-3.166.046 4.831 4.831 0 0 1-1.998-2.29c-5.952-11.407-16.676-19.164-33.114-19.164-21.327 0-36.593 16.659-36.593 38.246 0 20.926 13.017 38.134 37.198 38.134 12.73 0 22.88-6.02 27.614-12.588h-15.103a3.857 3.857 0 0 1-3.92-3.92v-12.886a3.857 3.857 0 0 1 3.92-3.92h44.247a3.718 3.718 0 0 1 3.92 3.75v47.43a3.857 3.857 0 0 1-3.92 3.92h-14.316a3.857 3.857 0 0 1-3.92-3.92Z"/></svg>
