<svg xmlns="http://www.w3.org/2000/svg" viewBox="0 0.33 146.2 29.26"><g><path fill-rule="evenodd" d="M62.065 17.655c.31-.795.465-1.717.465-2.766s-.158-1.971-.474-2.766c-.316-.796-.75-1.465-1.3-2.007a5.348 5.348 0 0 0-1.93-1.22 6.758 6.758 0 0 0-2.353-.407 6.58 6.58 0 0 0-2.308.408 5.442 5.442 0 0 0-1.931 1.22c-.556.541-.999 1.21-1.326 2.006-.328.795-.492 1.717-.492 2.766s.159 1.971.475 2.766c.316.796.748 1.461 1.299 1.997.55.537 1.193.94 1.93 1.211a6.755 6.755 0 0 0 2.353.407c.854 0 1.653-.135 2.397-.407a5.214 5.214 0 0 0 1.922-1.21c.538-.537.962-1.202 1.273-1.998Zm-8.603-1.14a5.604 5.604 0 0 1-.219-1.626c0-.59.073-1.128.22-1.618a3.71 3.71 0 0 1 .632-1.254 2.882 2.882 0 0 1 1.009-.814c.398-.194.854-.291 1.37-.291.502 0 .956.094 1.36.283.403.188.743.456 1.018.804.275.348.486.766.632 1.255.146.489.22 1.034.22 1.635 0 .6-.074 1.143-.22 1.626a3.722 3.722 0 0 1-.632 1.246 2.774 2.774 0 0 1-1.018.804 3.174 3.174 0 0 1-1.36.284c-.516 0-.972-.095-1.37-.284a2.788 2.788 0 0 1-1.01-.804 3.718 3.718 0 0 1-.632-1.246Z" clip-rule="evenodd"/><path d="M69.417 18.92c.386 0 .705-.033.956-.098.252-.065.454-.153.606-.266a.885.885 0 0 0 .316-.397c.059-.153.088-.324.088-.512 0-.4-.188-.734-.562-1-.375-.264-1.018-.55-1.931-.857-.398-.14-.796-.303-1.194-.486a4.382 4.382 0 0 1-1.07-.69 3.291 3.291 0 0 1-.773-1.007c-.2-.394-.299-.874-.299-1.44s.106-1.076.316-1.53c.211-.453.51-.839.896-1.157a4.09 4.09 0 0 1 1.404-.734c.55-.17 1.17-.257 1.861-.257.82 0 1.527.09 2.124.266.597.177 1.089.371 1.475.584l-.79 2.174a7.498 7.498 0 0 0-1.132-.469c-.416-.135-.916-.203-1.501-.203-.656 0-1.127.092-1.414.274-.286.183-.43.463-.43.84 0 .224.053.412.158.565.105.153.255.292.448.416.193.123.415.235.667.335.251.1.53.204.834.31.632.236 1.182.468 1.65.698.468.23.858.498 1.168.804.31.307.54.666.693 1.079.152.413.228.913.228 1.502 0 1.143-.398 2.03-1.194 2.66-.796.63-1.995.946-3.598.946a9.46 9.46 0 0 1-2.607-.336 6.575 6.575 0 0 1-.86-.3 6.47 6.47 0 0 1-.606-.301l.772-2.192c.363.201.81.38 1.343.54.532.159 1.185.238 1.958.238ZM86.275 8.773v2.351h-3.67v9.899h-2.738v-9.899h-3.67V8.773h10.078ZM89.317 21.023h2.739V8.773h-2.739v12.25ZM104.315 21.023a61.74 61.74 0 0 0-2.545-4.154 42.46 42.46 0 0 0-2.915-3.872v8.026h-2.703V8.773h2.23c.385.389.812.866 1.28 1.432.469.565.945 1.17 1.431 1.812.486.642.969 1.308 1.449 1.997.479.69.93 1.352 1.352 1.988V8.773h2.721v12.25h-2.3ZM116.644 10.894c-1.275 0-2.197.357-2.765 1.07-.567.713-.851 1.688-.851 2.925 0 .6.07 1.146.21 1.635.141.489.352.91.632 1.264.282.353.632.628 1.054.822.421.194.912.291 1.474.291.304 0 .565-.006.782-.017.216-.012.406-.035.57-.07v-4.26h2.739v6.062c-.328.13-.854.268-1.58.415-.726.147-1.621.222-2.686.222-.913 0-1.741-.142-2.484-.425a5.19 5.19 0 0 1-1.905-1.237c-.526-.542-.933-1.208-1.22-1.998-.287-.789-.43-1.69-.43-2.704 0-1.025.158-1.933.474-2.722.316-.79.748-1.459 1.299-2.007a5.464 5.464 0 0 1 1.94-1.246 6.627 6.627 0 0 1 2.379-.425 9.572 9.572 0 0 1 2.747.381 5.419 5.419 0 0 1 1.291.557l-.79 2.21a7.14 7.14 0 0 0-1.291-.522 5.454 5.454 0 0 0-1.589-.22ZM124.321 21.023V8.773h8.216v2.316h-5.477v2.403h4.863v2.263h-4.863v2.952h5.881v2.316h-8.62Z"/><path fill-rule="evenodd" d="M144.006 9.612c-.971-.654-2.37-.98-4.195-.98-.504 0-1.074.023-1.712.07-.638.047-1.255.13-1.852.247v12.074h2.738V16.55h1.352c.235.283.47.598.705.946a31.53 31.53 0 0 1 1.419 2.307c.228.413.455.819.678 1.22h3.061c-.21-.448-.438-.904-.684-1.37-.245-.466-.5-.913-.763-1.343-.264-.43-.53-.843-.799-1.238a16.857 16.857 0 0 0-.773-1.052c.738-.306 1.303-.728 1.694-1.263.393-.537.589-1.235.589-2.095 0-1.38-.487-2.396-1.458-3.05ZM139.433 11c.158-.012.336-.018.535-.018.878 0 1.542.127 1.993.38.451.254.676.68.676 1.282 0 .625-.222 1.067-.667 1.326-.445.26-1.182.388-2.212.388h-.773v-3.323l.448-.035Z" clip-rule="evenodd"/><path d="M44.002 8.872h2.756V21.08h-2.756V15.9h-4.627v5.179H36.62V8.872h2.755v4.668h4.627V8.872Z"/><path fill-rule="evenodd" d="M17.817.329v8.73l7.053 4.124v-9.26L17.817.33ZM0 .329v13.699h22.937l-6.979-3.836-9.09-.004V4.016L0 .329Zm17.817 25.472v-6.118l-9.16-.007c.008.04-7.095-3.897-7.095-3.897l23.308.11v13.698l-7.053-3.786ZM0 16.85V25.8l6.867 3.595v-8.52L0 16.85Z" clip-rule="evenodd"/></g></svg>
